
 
http://www.imdb.com/title/tt2250234/


A secret cabal, The Shadow, works to bring about the return of Goth Azul - the Undead God - in the rich world of SAGA, populated by elves, orcs, dwarves and dragons. 



Director:
 John Lyde 

Writers:
 Jason Faller, Kynan Griffin 

Stars:
 Danielle Chuchran, Richard McWilliams, Paul D. Hunt

Genres:
  Action |  Fantasy 

Country:
 USA 

Language:
 English 



Format                                   : MPEG-4
Format profile                           : Base Media
Codec ID                                 : isom
File size                                : 1.42 GiB
Duration                                 : 1h 45mn
Overall bit rate mode                    : Variable
Overall bit rate                         : 1 935 Kbps
Encoded date                             : UTC 2013-06-03 00:09:30
Tagged date                              : UTC 2013-06-03 00:09:30

Video
ID                                       : 1
Format                                   : AVC
Format/Info                              : Advanced Video Codec
Format profile                           : High@L4.1
Format settings, CABAC                   : Yes
Format settings, ReFrames                : 3 frames
Codec ID                                 : avc1
Codec ID/Info                            : Advanced Video Coding
Duration                                 : 1h 45mn
Bit rate mode                            : Variable
Bit rate                                 : 1 586 Kbps
Maximum bit rate                         : 40.0 Mbps
Width                                    : 720 pixels
Height                                   : 400 pixels
Display aspect ratio                     : 16:9
Frame rate mode                          : Constant
Frame rate                               : 23.976 fps
Color space                              : YUV
Chroma subsampling                       : 4:2:0
Bit depth                                : 8 bits
Scan type                                : Progressive
Bits/(Pixel*Frame)                       : 0.230
Stream size                              : 1.17 GiB (82%)
Title                                    : 264#trackID=1:fps=23.976@GPAC0.5.1-DEV-rev4283
Writing library                          : x264 core 133 r2334 a3ac64b
Encoding settings                        : cabac=1 / ref=4 / deblock=1:-1:-1 / analyse=0x3:0x113 / me=umh / subme=9 / psy=1 / psy_rd=1.00:0.15 / mixed_ref=1 / me_range=18 / chroma_me=1 / trellis=2 / 8x8dct=1 / cqm=0 / deadzone=21,11 / fast_pskip=0 / chroma_qp_offset=-3 / threads=9 / lookahead_threads=1 / sliced_threads=0 / slices=4 / nr=0 / decimate=1 / interlaced=0 / bluray_compat=0 / constrained_intra=0 / bframes=3 / b_pyramid=1 / b_adapt=2 / b_bias=0 / direct=1 / weightb=1 / open_gop=0 / weightp=0 / keyint=23 / keyint_min=1 / scenecut=40 / intra_refresh=0 / rc_lookahead=23 / rc=2pass / mbtree=1 / bitrate=1586 / ratetol=1.0 / qcomp=0.60 / qpmin=10 / qpmax=51 / qpstep=4 / cplxblur=20.0 / qblur=0.5 / vbv_maxrate=40000 / vbv_bufsize=30000 / nal_hrd=vbr / ip_ratio=1.40 / aq=1:1.00
Encoded date                             : UTC 2013-06-03 00:09:30
Tagged date                              : UTC 2013-06-03 00:10:05
Color primaries                          : BT.709-5, BT.1361, IEC 61966-2-4, SMPTE RP177
Transfer characteristics                 : BT.709-5, BT.1361
Matrix coefficients                      : BT.709-5, BT.1361, IEC 61966-2-4 709, SMPTE RP177

Audio
ID                                       : 2
Format                                   : AAC
Format/Info                              : Advanced Audio Codec
Format profile                           : LC
Codec ID                                 : 40
Duration                                 : 1h 45mn
Bit rate mode                            : Variable
Bit rate                                 : 345 Kbps
Maximum bit rate                         : 399 Kbps
Channel(s)                               : 6 channels
Channel positions                        : Front: L C R, Side: L R, LFE
Sampling rate                            : 48.0 KHz
Compression mode                         : Lossy
Stream size                              : 260 MiB (18%)
Language                                 : English
Encoded date                             : UTC 2013-06-02 19:27:01
Tagged date                              : UTC 2013-06-03 00:10:05




screens



    	http://addpix.net/viewer.php?file=12327722694099430436.jpg
    	http://addpix.net/viewer.php?file=75280485694077110401.jpg
    	http://addpix.net/viewer.php?file=50078027338092709673.jpg
    	http://addpix.net/viewer.php?file=68603201033185203911.jpg
    	http://addpix.net/viewer.php?file=85067102912103802293.jpg